<svg width="11" height="20" viewBox="0 0 11 20" fill="none" xmlns="http://www.w3.org/2000/svg">
<path d="M0 10C0 10.3842 0.14061 10.7119 0.432645 11.0056L8.86922 19.6271C9.09636 19.8757 9.39921 20 9.74533 20C10.4484 20 11 19.435 11 18.6893C11 18.3277 10.8594 18 10.6214 17.7514L3.0177 10L10.6214 2.24859C10.8594 1.9887 11 1.66102 11 1.29944C11 0.564972 10.4484 0 9.74533 0C9.39921 0 9.09636 0.124294 8.86922 0.372881L0.432645 8.99435C0.14061 9.28814 0.0108161 9.61582 0 10Z" fill="#6A6A90"/>
</svg>
