<svg width="14" height="8" viewBox="0 0 14 8" fill="none" xmlns="http://www.w3.org/2000/svg">
<path d="M-4.84638e-08 1.10872C-6.18331e-08 1.41458 0.107391 1.67264 0.322175 1.88291L6.11158 7.60812C6.37517 7.87575 6.6583 8 7 8C7.3417 8 7.63459 7.87575 7.88842 7.61768L13.6778 1.88292C13.8926 1.67264 14 1.41458 14 1.10872C14 0.497013 13.5021 -2.17643e-08 12.8773 -4.90762e-08C12.5649 -6.27322e-08 12.2817 0.124253 12.0474 0.344086L6.99024 5.37156L1.94282 0.344085C1.71827 0.124253 1.43515 -5.49227e-07 1.12273 -5.62883e-07C0.497908 -5.90195e-07 -2.17251e-08 0.497013 -4.84638e-08 1.10872Z" fill="#6C6C6C"/>
</svg>