<svg width="8" height="14" viewBox="0 0 8 14" fill="none" xmlns="http://www.w3.org/2000/svg">
<path d="M1.10872 14C1.41458 14 1.67264 13.8926 1.88292 13.6778L7.60812 7.88842C7.87575 7.62483 8 7.3417 8 7C8 6.6583 7.87575 6.36541 7.61768 6.11158L1.88292 0.322176C1.67264 0.107392 1.41458 0 1.10872 0C0.497013 0 0 0.497908 0 1.12273C0 1.43515 0.124253 1.71827 0.344086 1.95258L5.37156 7.00976L0.344086 12.0572C0.124253 12.2817 0 12.5649 0 12.8773C0 13.5021 0.497013 14 1.10872 14Z" fill="#6C6C6C"/>
</svg>
